# xmcd
#
# Track frame offsets:
#	150
#	13425
#	24900
#	35850
#	49075
#	63075
#	75900
#	84825
#	95325
#	106950
#	119100
#	131475
#	141900
#	155625
#	167700
#	177675
#	189075
#	199275
#
# Disc length: 2796 seconds
#
# Revision: 0
# Processed by: cddbd v1.5.2PL0 Copyright (c) Steve Scherf et al.
# Submitted via: audiograbber 1.83.01
#
DISCID=f30aea12
DTITLE=Jürgen Herbst - Weit ist der Weg zurück ins Heimatland
DYEAR=1900
DGENRE=Schlager
TTITLE0=Der Weg zurück nach Haus' (Green, Green, Grass Of Home)
TTITLE1=Mein Weg führt mich zu dir (Ring Of Fire)
TTITLE2=Weit ist der Weg zurück ins Heimatland
TTITLE3=Die Abendsonne
TTITLE4=Immer dem Wind hinterher
TTITLE5=Einmal - Einmal so (I Feel So Good)
TTITLE6=Vor uns liegt das Leben
TTITLE7=Oh my Sweetheart Rosmarie
TTITLE8=Goodbye, schwarze Rose
TTITLE9=Die Gedanken sind bei dir
TTITLE10=Es ist so lang schon her
TTITLE11=Wie ein Fremder
TTITLE12=Ich wär' ja so gerne geblieben
TTITLE13=Es steht in den Sternen geschrieben
TTITLE14=Wann kommt der Tag (My Elusive Dreams)
TTITLE15=Weine nicht um mich
TTITLE16=1000 Meilen weit
TTITLE17=Einmal muß man auseinandergeh'n
EXTD=
EXTT0=
EXTT1=
EXTT2=
EXTT3=
EXTT4=
EXTT5=
EXTT6=
EXTT7=
EXTT8=
EXTT9=
EXTT10=
EXTT11=
EXTT12=
EXTT13=
EXTT14=
EXTT15=
EXTT16=
EXTT17=
PLAYORDER=
